<svg width="34" height="34" viewBox="0 0 34 34" fill="none" xmlns="http://www.w3.org/2000/svg">
<circle cx="17" cy="17" r="16" transform="matrix(-1 0 0 1 34 0)" fill="white" stroke="#242527" stroke-width="2"/>
<path d="M10.5 23.5C10.0875 23.5 9.7345 23.3533 9.441 23.0597C9.147 22.7657 9 22.4125 9 22V13C9 12.5875 9.147 12.2345 9.441 11.941C9.7345 11.647 10.0875 11.5 10.5 11.5H12.8625L13.8 10.4875C13.9375 10.325 14.103 10.203 14.2965 10.1215C14.4905 10.0405 14.6937 10 14.9062 10H18.0938C18.3062 10 18.5095 10.0405 18.7035 10.1215C18.897 10.203 19.0625 10.325 19.2 10.4875L20.1375 11.5H22.5C22.9125 11.5 23.2657 11.647 23.5597 11.941C23.8533 12.2345 24 12.5875 24 13V22C24 22.4125 23.8533 22.7657 23.5597 23.0597C23.2657 23.3533 22.9125 23.5 22.5 23.5H10.5Z" fill="#242527"/>
<circle cx="16.5" cy="17.5" r="3.25" stroke="white"/>
<circle cx="0.75" cy="0.75" r="0.75" transform="matrix(1 0 0 -1 20.25 14.5)" fill="white"/>
</svg>
