<svg width="33" height="26" viewBox="0 0 33 26" fill="none" xmlns="http://www.w3.org/2000/svg">
<path d="M20.7484 17.0192L20.6811 17H20.6111H13.6111H12.0018L13.3277 17.912C14.8151 18.9349 15.5817 20.5551 15.9729 21.9714C16.1671 22.6743 16.2644 23.3118 16.3131 23.773C16.3373 24.0032 16.3494 24.1884 16.3553 24.3144C16.3583 24.3774 16.3597 24.4256 16.3604 24.4571L16.361 24.4917L16.3611 24.4992L16.3611 24.5V24.5003L16.3611 24.5004V24.5005L16.3611 25H16.8611H24.1111H24.6111V24.5C24.6111 19.5327 22.1792 17.428 20.7484 17.0192Z" stroke="#000" stroke-linecap="round"/>
<path d="M12.1929 17.0192L12.1256 17H12.0555H5.05555H4.97441L4.89743 17.0257C3.2526 17.5739 0.0243819 19.7472 0.558607 24.5552L0.608028 25H1.05555H15.5555H16.0555V24.5C16.0555 19.5327 13.6236 17.428 12.1929 17.0192Z" stroke="#000" stroke-linecap="round"/>
<circle cx="8.55554" cy="11" r="4.5" stroke="#000"/>
<circle cx="17.5555" cy="11" r="4.5" stroke="#000"/>
<circle cx="24.5" cy="8.49999" r="8.49999" fill="#FF0000"/>
<path d="M22.4192 6.01152V4.509H25.2263V13H23.5491V6.01152H22.4192Z" fill="white"/>
</svg>
