<svg width="24" height="24" viewBox="0 0 24 24" fill="none" xmlns="http://www.w3.org/2000/svg">
<path d="M16.792 3.90397C18.1064 3.97664 19.3389 4.56587 20.2207 5.54328C21.1026 6.52068 21.5624 7.80701 21.5 9.12197C21.5 12.194 18.848 14.081 16.303 16.344C13.791 18.587 12.438 19.813 12 20.096C11.523 19.787 9.857 18.273 7.697 16.344C5.141 14.072 2.5 12.167 2.5 9.12197C2.43756 7.80701 2.89739 6.52068 3.77926 5.54328C4.66113 4.56587 5.89357 3.97664 7.208 3.90397C7.93614 3.8819 8.65756 4.04915 9.30171 4.38937C9.94586 4.72959 10.4907 5.23113 10.883 5.84497C11.723 7.01997 11.863 7.60797 12.003 7.60797C12.143 7.60797 12.281 7.01997 13.113 5.84197C13.5031 5.22529 14.0481 4.72176 14.6937 4.38169C15.3393 4.04161 16.0628 3.87688 16.792 3.90397ZM16.792 1.90397C15.8839 1.8749 14.981 2.05106 14.1504 2.41932C13.3199 2.78759 12.5831 3.33848 11.995 4.03097C11.4074 3.3405 10.6721 2.79088 9.84354 2.42272C9.01498 2.05457 8.11428 1.87729 7.208 1.90397C5.36287 1.97612 3.62138 2.77596 2.36434 4.12857C1.1073 5.48118 0.436992 7.27651 0.499998 9.12197C0.499998 12.732 3.05 14.949 5.515 17.092C5.798 17.338 6.084 17.586 6.368 17.839L7.395 18.757C8.51504 19.8227 9.68926 20.8301 10.913 21.775C11.2368 21.9846 11.6143 22.0962 12 22.0962C12.3857 22.0962 12.7632 21.9846 13.087 21.775C14.3497 20.8012 15.56 19.7614 16.713 18.66L17.635 17.836C17.928 17.576 18.225 17.317 18.52 17.062C20.854 15.037 23.5 12.742 23.5 9.12197C23.563 7.27651 22.8927 5.48118 21.6357 4.12857C20.3786 2.77596 18.6371 1.97612 16.792 1.90397Z" fill="black"/>
</svg>
