<svg width="30" height="32" viewBox="0 0 30 32" fill="none" xmlns="http://www.w3.org/2000/svg">
<path d="M20.2984 22.3492C19.5257 21.4477 18.4761 19.6612 17.8309 16.2749L17.6993 15.5841C16.8984 11.3804 12.9531 8.56242 8.89801 9.30474L8.84097 9.31561C7.86816 9.50095 6.94234 9.88093 6.11654 10.4338C5.29073 10.9866 4.58117 11.7015 4.0285 12.5374C3.47583 13.3734 3.0909 14.3139 2.89578 15.3053C2.70065 16.2966 2.69916 17.3192 2.89138 18.3145L3.03969 19.093C3.68484 22.4792 3.36563 24.5266 2.97857 25.649C2.89967 25.8799 2.88229 26.1285 2.92822 26.3695C2.97414 26.6106 3.08172 26.8354 3.23997 27.021C3.39408 27.208 3.59425 27.3496 3.81947 27.4309C4.0447 27.5122 4.28666 27.5302 4.51996 27.4831L8.4174 26.7405L8.45448 26.9351C8.64132 27.9158 9.20108 28.7838 10.0106 29.3482C10.8202 29.9126 11.8132 30.1271 12.7712 29.9446C13.7292 29.762 14.5738 29.1974 15.1191 28.3749C15.6644 27.5524 15.8658 26.5394 15.679 25.5587L15.6419 25.3641L19.5394 24.6215C19.7737 24.5796 19.992 24.4739 20.1716 24.3155C20.3512 24.1571 20.4853 23.9518 20.5598 23.7213C20.6387 23.4904 20.6561 23.2418 20.6102 23.0008C20.5642 22.7597 20.4567 22.5349 20.2984 22.3492ZM14.5383 25.776C14.6661 26.447 14.5283 27.1401 14.1552 27.7029C13.7821 28.2657 13.2042 28.652 12.5488 28.7769C11.8933 28.9018 11.2138 28.755 10.6599 28.3688C10.106 27.9827 9.72303 27.3888 9.59519 26.7178L9.55811 26.5232L14.5012 25.5814L14.5383 25.776ZM19.46 23.3258C19.451 23.3591 19.4327 23.389 19.4073 23.4118C19.3819 23.4345 19.3505 23.4492 19.3169 23.4539L4.2975 26.3154C4.26454 26.3234 4.22995 26.3213 4.19795 26.3095C4.16595 26.2977 4.13794 26.2766 4.11736 26.2489C4.09503 26.2225 4.07985 26.1906 4.07335 26.1564C4.06684 26.1222 4.06923 26.087 4.08028 26.0542C4.50792 24.7829 4.87376 22.5149 4.1804 18.8756L4.03209 18.0972C3.87041 17.2553 3.87229 16.3906 4.03763 15.5523C4.20298 14.7141 4.52855 13.9188 4.99575 13.2117C5.46295 12.5047 6.06264 11.8999 6.76058 11.4317C7.45852 10.9636 8.24103 10.6413 9.06344 10.4833L9.11097 10.4742C12.5368 9.8417 15.8801 12.24 16.5586 15.8014L16.6902 16.4923C17.3836 20.1315 18.5577 22.1061 19.4229 23.1312C19.4452 23.1576 19.4604 23.1895 19.4669 23.2236C19.4734 23.2578 19.471 23.293 19.46 23.3258Z" fill="#000"/>
<circle cx="21.5" cy="8.49999" r="8.49999" fill="#FF0000"/>
<path d="M23.02 6.62884C22.9423 6.30271 22.8065 6.05811 22.6123 5.89505C22.426 5.73198 22.1542 5.65045 21.797 5.65045C21.2612 5.65045 20.8652 5.86787 20.609 6.30271C20.3605 6.72978 20.2324 7.42863 20.2246 8.39925C20.411 8.08865 20.6827 7.84794 21.0399 7.67711C21.3971 7.49851 21.7854 7.40922 22.2047 7.40922C22.7094 7.40922 23.1559 7.51793 23.5441 7.73535C23.9324 7.95276 24.2352 8.27113 24.4526 8.69044C24.6701 9.10198 24.7788 9.59894 24.7788 10.1813C24.7788 10.7326 24.6662 11.2257 24.441 11.6605C24.2236 12.0876 23.9013 12.4215 23.4742 12.6622C23.0472 12.9029 22.5386 13.0233 21.9484 13.0233C21.1409 13.0233 20.5041 12.8447 20.0382 12.4875C19.5801 12.1303 19.2579 11.6334 19.0715 10.9966C18.8929 10.3521 18.8036 9.56011 18.8036 8.62055C18.8036 7.19956 19.0482 6.128 19.5374 5.40585C20.0266 4.67594 20.7992 4.31099 21.8553 4.31099C22.6706 4.31099 23.3034 4.53229 23.7538 4.9749C24.2042 5.4175 24.4643 5.96881 24.5342 6.62884H23.02ZM21.832 8.74867C21.4204 8.74867 21.0749 8.86903 20.7953 9.10975C20.5158 9.35046 20.376 9.69988 20.376 10.158C20.376 10.6162 20.5041 10.9772 20.7604 11.2412C21.0244 11.5052 21.3932 11.6372 21.8669 11.6372C22.2862 11.6372 22.6162 11.5091 22.8569 11.2529C23.1054 10.9966 23.2297 10.6511 23.2297 10.2163C23.2297 9.76589 23.1093 9.4087 22.8686 9.14469C22.6356 8.88068 22.2901 8.74867 21.832 8.74867Z" fill="#fff"/>
</svg>
