<svg width="34" height="34" viewBox="0 0 34 34" fill="none" xmlns="http://www.w3.org/2000/svg">
<circle cx="17" cy="17" r="16" transform="matrix(-1 0 0 1 34 0)" fill="#1878F3" stroke="#242527" stroke-width="2"/>
<path fill-rule="evenodd" clip-rule="evenodd" d="M21.1875 23.355C19.9035 24.3843 18.2737 25 16.5 25C12.3579 25 9 21.6421 9 17.5C9 15.7263 9.61567 14.0965 10.645 12.8125H9.9375V10H16.5C20.6421 10 24 13.3579 24 17.5V25H21.1875V23.355Z" fill="white"/>
<path fill-rule="evenodd" clip-rule="evenodd" d="M11.1967 19.375C11.4977 20.2262 12.0019 21.0002 12.6757 21.6249C13.7517 22.6225 15.1749 23.1602 16.6417 23.1232C18.1086 23.0863 19.5029 22.4776 20.5273 21.4271C21.1016 20.8381 21.5341 20.1364 21.8033 19.375H11.1967Z" fill="#1878F3"/>
<path fill-rule="evenodd" clip-rule="evenodd" d="M13 20C13.2085 20.5094 13.5578 20.9727 14.0246 21.3466C14.77 21.9436 15.756 22.2654 16.7722 22.2433C17.7884 22.2212 18.7544 21.8569 19.464 21.2282C19.8619 20.8757 20.1615 20.4557 20.3481 20H13Z" fill="white"/>
</svg>
