<svg width="24" height="22" viewBox="0 0 24 22" fill="none" xmlns="http://www.w3.org/2000/svg">
<path d="M19.8947 0.69303L19.7445 0.5H19.5H4H3.73241L3.58397 0.72265L0.583975 5.22265L0.5 5.34861V5.5V9.49999V9.99999H1H23H23.5V9.49999V5.5V5.32844L23.3947 5.19303L19.8947 0.69303Z" stroke="#000" stroke-linecap="round"/>
<mask id="path-2-outside-1_18_270" maskUnits="userSpaceOnUse" x="0.5" y="7.5" width="5" height="4" fill="#fff">
<rect fill="#000" x="0.5" y="7.5" width="5" height="4"/>
<path d="M4.5 9C4.5 9.39782 4.34196 9.77935 4.06066 10.0607C3.77935 10.342 3.39782 10.5 3 10.5C2.60217 10.5 2.22064 10.342 1.93934 10.0607C1.65804 9.77935 1.5 9.39782 1.5 9L3 9H4.5Z"/>
</mask>
<path d="M4.5 9C4.5 9.39782 4.34196 9.77935 4.06066 10.0607C3.77935 10.342 3.39782 10.5 3 10.5C2.60217 10.5 2.22064 10.342 1.93934 10.0607C1.65804 9.77935 1.5 9.39782 1.5 9L3 9H4.5Z" stroke="#000" stroke-width="2" mask="url(#path-2-outside-1_18_270)"/>
<mask id="path-3-outside-2_18_270" maskUnits="userSpaceOnUse" x="3.5" y="7.5" width="5" height="4" fill="#fff">
<rect fill="#000" x="3.5" y="7.5" width="5" height="4"/>
<path d="M7.5 9C7.5 9.39782 7.34196 9.77935 7.06066 10.0607C6.77935 10.342 6.39782 10.5 6 10.5C5.60217 10.5 5.22064 10.342 4.93934 10.0607C4.65804 9.77935 4.5 9.39782 4.5 9L6 9H7.5Z"/>
</mask>
<path d="M7.5 9C7.5 9.39782 7.34196 9.77935 7.06066 10.0607C6.77935 10.342 6.39782 10.5 6 10.5C5.60217 10.5 5.22064 10.342 4.93934 10.0607C4.65804 9.77935 4.5 9.39782 4.5 9L6 9H7.5Z" stroke="#000" stroke-width="2" mask="url(#path-3-outside-2_18_270)"/>
<mask id="path-4-outside-3_18_270" maskUnits="userSpaceOnUse" x="6.5" y="7.5" width="5" height="4" fill="#fff">
<rect fill="#000" x="6.5" y="7.5" width="5" height="4"/>
<path d="M10.5 9C10.5 9.39782 10.342 9.77935 10.0607 10.0607C9.77935 10.342 9.39782 10.5 9 10.5C8.60217 10.5 8.22064 10.342 7.93934 10.0607C7.65804 9.77935 7.5 9.39782 7.5 9L9 9H10.5Z"/>
</mask>
<path d="M10.5 9C10.5 9.39782 10.342 9.77935 10.0607 10.0607C9.77935 10.342 9.39782 10.5 9 10.5C8.60217 10.5 8.22064 10.342 7.93934 10.0607C7.65804 9.77935 7.5 9.39782 7.5 9L9 9H10.5Z" stroke="#000" stroke-width="2" mask="url(#path-4-outside-3_18_270)"/>
<mask id="path-5-outside-4_18_270" maskUnits="userSpaceOnUse" x="9.5" y="7.5" width="5" height="4" fill="#fff">
<rect fill="#000" x="9.5" y="7.5" width="5" height="4"/>
<path d="M13.5 9C13.5 9.39782 13.342 9.77935 13.0607 10.0607C12.7794 10.342 12.3978 10.5 12 10.5C11.6022 10.5 11.2206 10.342 10.9393 10.0607C10.658 9.77935 10.5 9.39782 10.5 9L12 9H13.5Z"/>
</mask>
<path d="M13.5 9C13.5 9.39782 13.342 9.77935 13.0607 10.0607C12.7794 10.342 12.3978 10.5 12 10.5C11.6022 10.5 11.2206 10.342 10.9393 10.0607C10.658 9.77935 10.5 9.39782 10.5 9L12 9H13.5Z" stroke="#000" stroke-width="2" mask="url(#path-5-outside-4_18_270)"/>
<mask id="path-6-outside-5_18_270" maskUnits="userSpaceOnUse" x="12.5" y="7.5" width="5" height="4" fill="#fff">
<rect fill="#000" x="12.5" y="7.5" width="5" height="4"/>
<path d="M16.5 9C16.5 9.39782 16.342 9.77935 16.0607 10.0607C15.7794 10.342 15.3978 10.5 15 10.5C14.6022 10.5 14.2206 10.342 13.9393 10.0607C13.658 9.77935 13.5 9.39782 13.5 9L15 9H16.5Z"/>
</mask>
<path d="M16.5 9C16.5 9.39782 16.342 9.77935 16.0607 10.0607C15.7794 10.342 15.3978 10.5 15 10.5C14.6022 10.5 14.2206 10.342 13.9393 10.0607C13.658 9.77935 13.5 9.39782 13.5 9L15 9H16.5Z" stroke="#000" stroke-width="2" mask="url(#path-6-outside-5_18_270)"/>
<mask id="path-7-outside-6_18_270" maskUnits="userSpaceOnUse" x="15.5" y="7.5" width="5" height="4" fill="#fff">
<rect fill="#000" x="15.5" y="7.5" width="5" height="4"/>
<path d="M19.5 9C19.5 9.39782 19.342 9.77935 19.0607 10.0607C18.7794 10.342 18.3978 10.5 18 10.5C17.6022 10.5 17.2206 10.342 16.9393 10.0607C16.658 9.77935 16.5 9.39782 16.5 9L18 9H19.5Z"/>
</mask>
<path d="M19.5 9C19.5 9.39782 19.342 9.77935 19.0607 10.0607C18.7794 10.342 18.3978 10.5 18 10.5C17.6022 10.5 17.2206 10.342 16.9393 10.0607C16.658 9.77935 16.5 9.39782 16.5 9L18 9H19.5Z" stroke="#000" stroke-width="2" mask="url(#path-7-outside-6_18_270)"/>
<mask id="path-8-outside-7_18_270" maskUnits="userSpaceOnUse" x="18.5" y="7.5" width="5" height="4" fill="#fff">
<rect fill="#000" x="18.5" y="7.5" width="5" height="4"/>
<path d="M22.5 9C22.5 9.39782 22.342 9.77935 22.0607 10.0607C21.7794 10.342 21.3978 10.5 21 10.5C20.6022 10.5 20.2206 10.342 19.9393 10.0607C19.658 9.77935 19.5 9.39782 19.5 9L21 9H22.5Z"/>
</mask>
<path d="M22.5 9C22.5 9.39782 22.342 9.77935 22.0607 10.0607C21.7794 10.342 21.3978 10.5 21 10.5C20.6022 10.5 20.2206 10.342 19.9393 10.0607C19.658 9.77935 19.5 9.39782 19.5 9L21 9H22.5Z" stroke="#000" stroke-width="2" mask="url(#path-8-outside-7_18_270)"/>
<path d="M1 5H23M2 20.5V9H21.5V20.5" stroke="#000" stroke-linecap="round"/>
<path d="M8.5 20.5V21H9H15H15.5V20.5V13.5V13H15H9H8.5V13.5V13.9118V20.5Z" stroke="#000" stroke-linecap="round"/>
<path d="M2 21H21.5" stroke="#000" stroke-linecap="round"/>
</svg>
